<svg xmlns="http://www.w3.org/2000/svg" width="367.95" height="102.69" viewBox="0 0 367.95 102.69">
  <g id="surface1" transform="translate(-72.288 -121.995)">
    <g id="Grupo_2" data-name="Grupo 2" transform="translate(72.288 129.211)">
      <g id="Grupo_1" data-name="Grupo 1" transform="translate(0 0)">
        <path id="Caminho_1" data-name="Caminho 1" d="M9.836,19.978a9.738,9.738,0,0,1-2.269-3.264A8.463,8.463,0,0,1,6.8,13.552a8.983,8.983,0,0,1,.714-3.187A43.054,43.054,0,0,1,9.479,6.082Q10.722,3.663,12.36.8,14.014-2.074,15.9-5.009l3.774-5.813q1.96-2.83,3.85-5.278a54.078,54.078,0,0,0-11.907,5Q7.768-8.674,5.68-7.559A7.731,7.731,0,0,1,2.238-6.437c-1.517,0-2.269-.931-2.269-2.8q0-4.025,4.181-9.867,4.331-6.062,8.949-7.5,4.637-1.453,10.352-2.754t11.907-2.269a162.415,162.415,0,0,1,24.885-2.091q13.156,0,16.8,2.5a10.78,10.78,0,0,1,4.411,6.094,14.359,14.359,0,0,1,.561,4.054A6.911,6.911,0,0,1,79.9-16.559a23.263,23.263,0,0,1-5.584,4.411A73.72,73.72,0,0,1,57.082-4.933Q63.144-3.757,65.5-2.256A10.6,10.6,0,0,1,68.785.753a6.977,6.977,0,0,1,.969,3.825A7.59,7.59,0,0,1,67.739,9.32a20.588,20.588,0,0,1-5.558,4.564,47.581,47.581,0,0,1-8.389,3.85,79.213,79.213,0,0,1-10.454,2.932,116.313,116.313,0,0,1-24.554,2.55A12.487,12.487,0,0,1,9.836,19.978ZM32.171-10.134Q26.148.3,26.154,4.3a4.515,4.515,0,0,0,1.938,3.442,5.776,5.776,0,0,0,3.774,1.53q1.96,0,4.309-.178c1.581-.115,3.193-.28,4.844-.484s3.3-.472,4.9-.765a43.758,43.758,0,0,0,4.309-1.02Q54.4,5.578,54.4,4.3q0-2.314-6.476-3.85a45.26,45.26,0,0,0-10.02-1.2,3.866,3.866,0,0,1-2.652-.74,2.259,2.259,0,0,1-.79-1.708,3.134,3.134,0,0,1,.969-2.065A7.221,7.221,0,0,1,38.112-7a127.98,127.98,0,0,0,22.769-7.675c3.009-1.389,4.513-2.448,4.513-3.162a3.5,3.5,0,0,0-.943-2.524A4.935,4.935,0,0,0,60.8-22.092c-1.326,0-2.849.064-4.564.179s-3.563.255-5.533.459q-6.53.669-12.952,1.861a41.1,41.1,0,0,1-2.448,4.258Zm0,0" transform="translate(0.031 33.719)" fill="#fff"/>
      </g>
    </g>
    <g id="Grupo_4" data-name="Grupo 4" transform="translate(145.907 145.707)">
      <g id="Grupo_3" data-name="Grupo 3" transform="translate(0 0)">
        <path id="Caminho_2" data-name="Caminho 2" d="M72.856-15.2c.848,0,1.275.727,1.275,2.167q0,3.729-5.2,9.663l-2.295,2.32Q56.251,9.339,47.079,12.8q-5.718,2.123-8.184-.2a13.857,13.857,0,0,1-3.264-6.349l-.943-3.493L26.146,8.007,21.2,10.837q-8.825,4.8-13.233,4.793a11.89,11.89,0,0,1-9.408-4.36A14.117,14.117,0,0,1-5.062,1.684,13.1,13.1,0,0,1-.779-7.9Q5.359-13.917,18.6-18.918,31.114-23.6,38.818-23.609a2.278,2.278,0,0,1,2.6,2.55,4.29,4.29,0,0,1-.688,2.652,7.225,7.225,0,0,1-2.8,1.81l-5.048,2.167Q21.633-9.736,16.431-4.691a3.918,3.918,0,0,0-1.479,2.728c0,.886.7,1.326,2.116,1.326q2.084,0,9.714-4.488L30.1-7.087q7.745-4.666,12.952-4.666a5.687,5.687,0,0,1,5.864,3.9c.236.7.459,1.4.663,2.116s.44,1.326.663,1.887c.472,1.313.905,1.963,1.3,1.963A3.817,3.817,0,0,0,53.2-2.473a25,25,0,0,0,2.4-1.479q1.3-.889,2.7-1.989l4.844-3.876Q69.586-15.189,72.856-15.2Zm0,0" transform="translate(5.063 23.609)" fill="#fff"/>
      </g>
    </g>
    <g id="Grupo_6" data-name="Grupo 6" transform="translate(213.267 121.995)">
      <g id="Grupo_5" data-name="Grupo 5" transform="translate(0 0)">
        <path id="Caminho_3" data-name="Caminho 3" d="M36.947,26.009q-8.213,0-16.191-10.5l-4.64,3.468Q8.7,24.25,6.249,24.25A7.688,7.688,0,0,1,1.1,22.185a4.428,4.428,0,0,1-.994-1.3q-1.472-1.472-1.479-7.751A47.525,47.525,0,0,1,.027,1.379a54.677,54.677,0,0,1,3.646-10.2A78.386,78.386,0,0,1,14.612-25.035,35.63,35.63,0,0,1,24.861-34.9q5.125-3.232,8.567-3.238a5.75,5.75,0,0,1,3.187.841A2.605,2.605,0,0,1,37.916-35a5.956,5.956,0,0,1-1.122,3.162Q23.609-12.586,21.547-9.38a54.015,54.015,0,0,0-2.881,4.946c-.561,1.141-.982,2.014-1.249,2.626S16.913-.6,16.677.028a10.788,10.788,0,0,0-.841,3.264c0,.663.5.994,1.5.994q1.4,0,7.343-7.267l5.38-6.655a16.722,16.722,0,0,1,6.145-5.125,14.238,14.238,0,0,1,5.558-1.4q6.7,0,6.706,3.238,0,2.935-4.462,8.236c-.325.376-.8.886-1.428,1.53L37.2,1.813l-3.57,3.162a24.376,24.376,0,0,0,7.42,6.221,3.573,3.573,0,0,0,1.428.382,5.9,5.9,0,0,0,2.091-.739,36.993,36.993,0,0,0,3.417-1.912q1.912-1.2,4.054-2.677L63.03-1.757a4.655,4.655,0,0,1,2.881-1.122c2,0,3.009.829,3.009,2.473q0,3.241-3.162,7.573A18.374,18.374,0,0,1,63.9,9.335l-2.55,2.32q-10.766,10-19.505,13.335A13.69,13.69,0,0,1,36.947,26.009Zm0,0" transform="translate(1.375 38.141)" fill="#fff"/>
      </g>
    </g>
    <g id="Grupo_8" data-name="Grupo 8" transform="translate(269.524 144.458)">
      <g id="Grupo_7" data-name="Grupo 7" transform="translate(0)">
        <path id="Caminho_4" data-name="Caminho 4" d="M58.309-14.074c1.287,0,1.938.727,1.938,2.167a9.27,9.27,0,0,1-.994,3.646,14.267,14.267,0,0,1-2.83,4.08Q54.586-2.288,52.189-.229q-2.371,2.046-5.558,4.283T39.594,8.516a68.452,68.452,0,0,1-8.184,3.952,48.831,48.831,0,0,1-18.562,3.927A20.508,20.508,0,0,1,.839,12.825Q-4.516,9.106-4.516,3.774q0-8.385,9-15.91A56.82,56.82,0,0,1,22.817-22.208a35.27,35.27,0,0,1,10.862-2.167A10.379,10.379,0,0,1,39.8-22.616a6.133,6.133,0,0,1,2.626,5.176q0,5.106-8.057,11.27-1.281.994-2.32,1.683l-1.453.969a70.179,70.179,0,0,1-12.188,6.3,10.356,10.356,0,0,0,4.717,1.3,13.794,13.794,0,0,0,3.926-.51A31.157,31.157,0,0,0,31,2.091C32.48,1.447,34.048.682,35.718-.2s3.353-1.887,5.074-2.958a73.364,73.364,0,0,0,9.944-7.292,15.572,15.572,0,0,1,5.609-3.264A6.661,6.661,0,0,1,58.309-14.074ZM14.072-2.8,16.29-3.927C17-4.3,17.641-4.647,18.2-4.972q8.108-4.637,9.23-5.711c.746-.727,1.122-1.23,1.122-1.5a2.544,2.544,0,0,0-.255-.994,3.947,3.947,0,0,0-.612-1.02,2.771,2.771,0,0,0-2.065-1.122,8.124,8.124,0,0,0-2.371.408,15.4,15.4,0,0,0-2.626,1.122,14.935,14.935,0,0,0-2.55,1.683,14.193,14.193,0,0,0-2.142,2.091c-1.428,1.683-2.142,3.149-2.142,4.385A10.8,10.8,0,0,0,14.072-2.8Zm0,0" transform="translate(4.516 24.375)" fill="#fff"/>
      </g>
    </g>
    <g id="Grupo_10" data-name="Grupo 10" transform="translate(318.153 144.764)">
      <g id="Grupo_9" data-name="Grupo 9" transform="translate(0)">
        <path id="Caminho_5" data-name="Caminho 5" d="M.33,2.049a3.382,3.382,0,0,1-1.5-.357A3.944,3.944,0,0,1-2.551.519,7.554,7.554,0,0,1-3.953-4.3q0-3.232,3.876-8.082a40.494,40.494,0,0,1,8.8-8.108q5.373-3.691,9.23-3.7c2.257,0,3.786.65,4.59,1.938l.561.892q.66.994,1.3.994c.421,0,1.084-.038,1.989-.127L32.1-20.9c.88-.064,1.568-.1,2.065-.1a3.685,3.685,0,0,1,1.734.535,6.178,6.178,0,0,1,1.759,1.428,6.671,6.671,0,0,1,1.683,4.411q0,2.476-5.482,7.8L31.207-4.172q-2.859,2.935-2.856,3.7A1.709,1.709,0,0,0,29.065.876a2.551,2.551,0,0,0,1.581.561A4.777,4.777,0,0,0,32.533.978,25.682,25.682,0,0,0,35.159-.373c1.052-.612,2.25-1.339,3.6-2.193q5.478-3.6,7.343-4.972l3.315-2.371c2.276-1.594,3.888-2.4,4.844-2.4a4.1,4.1,0,0,1,2.371.638,2.382,2.382,0,0,1,.918,2.142,8.777,8.777,0,0,1-1.555,4.08A24.477,24.477,0,0,1,52.6-.985Q50.782.879,49.055,2.482c-1.16,1.071-2.518,2.231-4.079,3.468s-3.3,2.5-5.2,3.774a48.446,48.446,0,0,1-5.992,3.442,30.8,30.8,0,0,1-13.207,3.468q-8.777,0-10.709-4.513A7.658,7.658,0,0,1,9.28,9.06,11.574,11.574,0,0,1,9.917,5.44,23.4,23.4,0,0,1,11.6,1.564a31.455,31.455,0,0,1,4.921-6.731q2.419-2.524,2.422-3.009a.96.96,0,0,0-.867-.969,12.087,12.087,0,0,0-2.55-.2c-.478,0-1.5.7-3.085,2.091L8.515-3.637Q2.262,2.052.33,2.049Zm0,0" transform="translate(3.953 24.188)" fill="#fff"/>
      </g>
    </g>
    <g id="Grupo_12" data-name="Grupo 12" transform="translate(368.464 146.268)">
      <g id="Grupo_11" data-name="Grupo 11" transform="translate(0 0)">
        <path id="Caminho_6" data-name="Caminho 6" d="M15.769-2.333Q15.769-.5,18.217-.5q4.972,0,16.93-12.392l3.876-3.926q3.978-3.9,5.252-3.9a5.364,5.364,0,0,1,2.269.459,6.527,6.527,0,0,1,1.785,1.122,4.052,4.052,0,0,1,1.555,2.983,21,21,0,0,1-.332,3.493A35.2,35.2,0,0,1,48.481-8.4,95.314,95.314,0,0,1,43.713,3.43L42.082,6.948,48.889.778,62.836-11.155a6.493,6.493,0,0,1,3.544-1.606q3.031,0,3.034,2.907,0,3.012-3.926,7.751a27.5,27.5,0,0,1-2.6,2.779l-9.459,8.21-18.46,15.6Q32.52,26.6,31.3,27.856q-1.511,2.39-2.32,3.57-.822,1.2-1.632,2.524a21.2,21.2,0,0,1-1.555,2.32C24.7,37.659,23.6,38.36,22.5,38.36a4.956,4.956,0,0,1-3.315-1.4q-2.983-2.6-2.983-4.666a12.538,12.538,0,0,1,1.122-4.742q1.119-2.706,2.932-6.2l8.49-15.681q-6.119,5.536-9.612,7.318a28.721,28.721,0,0,1-5.89,2.371,21.078,21.078,0,0,1-5.048.586A9.43,9.43,0,0,1,3.53,14.827,9.959,9.959,0,0,1,.216,11.895a16.136,16.136,0,0,1-2.575-9.51A26.375,26.375,0,0,1,.777-9.88a26.206,26.206,0,0,1,7.93-9.536,17.892,17.892,0,0,1,10.709-3.85q5.479,0,5.482,4.283,0,2.677-4.564,7.955T15.769-2.333Zm0,0" transform="translate(2.359 23.266)" fill="#fff"/>
      </g>
    </g>
    <g id="Grupo_14" data-name="Grupo 14" transform="translate(148.214 209.974)">
      <g id="Grupo_13" data-name="Grupo 13" transform="translate(0 0)">
        <path id="Caminho_7" data-name="Caminho 7" d="M.344,3.883l1.53-.306v-10.4L.344-7.131V-8.891h11.55v3.978H9.65L9.523-6.647H4.78v4h5.1V-.4H4.78V3.577l1.555.306V5.617H.344Zm0,0" transform="translate(-0.344 8.891)" fill="#fff"/>
      </g>
    </g>
    <g id="Grupo_16" data-name="Grupo 16" transform="translate(165.351 209.974)">
      <g id="Grupo_15" data-name="Grupo 15" transform="translate(0 0)">
        <path id="Caminho_8" data-name="Caminho 8" d="M6.845-8.891a5.963,5.963,0,0,1,3.876,1.147,3.78,3.78,0,0,1,1.4,3.111,3.2,3.2,0,0,1-.586,1.912,4.27,4.27,0,0,1-1.708,1.3A3.137,3.137,0,0,1,11.664-.145a3.953,3.953,0,0,1,.561,2.167v.739A1.254,1.254,0,0,0,12.4,3.5a.883.883,0,0,0,.637.306l.357.051V5.617h-1.5a2.349,2.349,0,0,1-1.989-.765,3.152,3.152,0,0,1-.586-1.989V2.048A2.328,2.328,0,0,0,8.758.39,2.131,2.131,0,0,0,7.177-.247H4.78V3.577l1.555.306V5.617H.344V3.883l1.53-.306v-10.4L.344-7.131V-8.891ZM4.78-2.491H6.794A2.791,2.791,0,0,0,8.63-3a1.887,1.887,0,0,0,.612-1.5A2.064,2.064,0,0,0,8.63-6.06a2.5,2.5,0,0,0-1.785-.586H4.78Zm0,0" transform="translate(-0.344 8.891)" fill="#fff"/>
      </g>
    </g>
    <g id="Grupo_18" data-name="Grupo 18" transform="translate(183.911 209.974)">
      <g id="Grupo_17" data-name="Grupo 17" transform="translate(0 0)">
        <path id="Caminho_9" data-name="Caminho 9" d="M9.7-.757H4.78v4.13H9.472L9.6,1.665h2.218V5.617H.344V3.883l1.53-.306v-10.4L.344-7.131V-8.891H11.792v3.978H9.574L9.446-6.647H4.78V-3H9.7Zm0,0" transform="translate(-0.344 8.891)" fill="#fff"/>
      </g>
    </g>
    <g id="Grupo_20" data-name="Grupo 20" transform="translate(201.885 209.77)">
      <g id="Grupo_19" data-name="Grupo 19" transform="translate(0 0)">
        <path id="Caminho_10" data-name="Caminho 10" d="M11.2-4.171H9.008L8.651-6.16a3.771,3.771,0,0,0-1.122-.433A6.535,6.535,0,0,0,6-6.772a2.993,2.993,0,0,0-1.861.51,1.6,1.6,0,0,0-.637,1.3,1.441,1.441,0,0,0,.663,1.224,10.213,10.213,0,0,0,2.371.994A9.13,9.13,0,0,1,10.155-.984,3.671,3.671,0,0,1,11.4,1.9,3.434,3.434,0,0,1,9.926,4.829,6.471,6.471,0,0,1,6.05,5.9a8.7,8.7,0,0,1-3.136-.535A6.361,6.361,0,0,1,.619,3.835V.826H2.863l.306,2.04a3.412,3.412,0,0,0,1.2.612,5.838,5.838,0,0,0,1.683.229,2.865,2.865,0,0,0,1.81-.484,1.55,1.55,0,0,0,.637-1.3A1.677,1.677,0,0,0,7.886.571,6.116,6.116,0,0,0,5.821-.4a11.664,11.664,0,0,1-3.9-1.759,3.33,3.33,0,0,1-1.326-2.8A3.423,3.423,0,0,1,2.073-7.843,6.418,6.418,0,0,1,5.846-9.016a8.733,8.733,0,0,1,3.034.51A7.3,7.3,0,0,1,11.2-7.154Zm0,0" transform="translate(-0.594 9.016)" fill="#fff"/>
      </g>
    </g>
    <g id="Grupo_22" data-name="Grupo 22" transform="translate(218.384 209.974)">
      <g id="Grupo_21" data-name="Grupo 21" transform="translate(0 0)">
        <path id="Caminho_11" data-name="Caminho 11" d="M.344-7.131V-8.891H6.336v1.759L4.78-6.825v4.181h5.941V-6.825L9.166-7.131V-8.891h5.992v1.759L13.6-6.825v10.4l1.555.306V5.617H9.166V3.883l1.555-.306V-.4H4.78V3.577l1.555.306V5.617H.344V3.883l1.53-.306v-10.4Zm0,0" transform="translate(-0.344 8.891)" fill="#fff"/>
      </g>
    </g>
    <g id="Grupo_24" data-name="Grupo 24" transform="translate(238.307 224.482)">
      <g id="Grupo_23" data-name="Grupo 23">
        <path id="Caminho_12" data-name="Caminho 12" fill="#fff"/>
      </g>
    </g>
    <g id="Grupo_26" data-name="Grupo 26" transform="translate(248.299 209.77)">
      <g id="Grupo_25" data-name="Grupo 25" transform="translate(0 0)">
        <path id="Caminho_13" data-name="Caminho 13" d="M.281,1.8A3.235,3.235,0,0,1,.919-.219,8.207,8.207,0,0,1,2.882-2a8.716,8.716,0,0,1-.994-1.683,3.835,3.835,0,0,1-.331-1.555A3.6,3.6,0,0,1,2.627-7.97,3.949,3.949,0,0,1,5.508-9.016a3.488,3.488,0,0,1,2.575.994A3.2,3.2,0,0,1,9.078-5.65a3.305,3.305,0,0,1-.51,1.785,4.92,4.92,0,0,1-1.326,1.4L6.324-1.8,9.078,1.413a5.276,5.276,0,0,0,.535-1.3,5.248,5.248,0,0,0,.2-1.479h2.167a9.492,9.492,0,0,1-.331,2.55,5.9,5.9,0,0,1-1.045,2.04L12.7,5.645l-.026.051H9.435L8.67,4.8a6.689,6.689,0,0,1-1.734.841A7.144,7.144,0,0,1,5.024,5.9,5.032,5.032,0,0,1,1.556,4.778,3.812,3.812,0,0,1,.281,1.8Zm4.87,1.887A4.119,4.119,0,0,0,6.2,3.554a6.013,6.013,0,0,0,1.045-.408L4.233-.321l-.178.127a2.406,2.406,0,0,0-.688.918,2.473,2.473,0,0,0-.178.918,2.1,2.1,0,0,0,.535,1.479A1.916,1.916,0,0,0,5.151,3.682ZM4.157-5.268a2.109,2.109,0,0,0,.2.892A4.352,4.352,0,0,0,5-3.381l.867-.561A1.989,1.989,0,0,0,6.6-4.656a1.785,1.785,0,0,0,.2-.841,1.226,1.226,0,0,0-.382-.892,1.239,1.239,0,0,0-.943-.382,1.218,1.218,0,0,0-.994.433A1.715,1.715,0,0,0,4.157-5.268Zm0,0" transform="translate(-0.281 9.016)" fill="#fff"/>
      </g>
    </g>
    <g id="Grupo_28" data-name="Grupo 28" transform="translate(265.106 224.482)">
      <g id="Grupo_27" data-name="Grupo 27">
        <path id="Caminho_14" data-name="Caminho 14" fill="#fff"/>
      </g>
    </g>
    <g id="Grupo_30" data-name="Grupo 30" transform="translate(275.049 209.974)">
      <g id="Grupo_29" data-name="Grupo 29" transform="translate(0 0)">
        <path id="Caminho_15" data-name="Caminho 15" d="M13.177-8.891v3.876H10.933l-.127-1.632H8.154V3.577l1.555.306V5.617H3.692V3.883l1.555-.306V-6.647H2.57l-.1,1.632H.25V-8.891Zm0,0" transform="translate(-0.25 8.891)" fill="#fff"/>
      </g>
    </g>
    <g id="Grupo_32" data-name="Grupo 32" transform="translate(293.301 209.974)">
      <g id="Grupo_31" data-name="Grupo 31" transform="translate(0 0)">
        <path id="Caminho_16" data-name="Caminho 16" d="M.25,3.883,1.3,3.73,5.706-8.891H8.664L13.049,3.73l1.045.153V5.617H9.148V3.883l1.02-.178L9.531,1.691H4.814L4.177,3.7l1.02.178V5.617H.25ZM5.5-.451h3.34l-1.632-5.1H7.134Zm0,0" transform="translate(-0.25 8.891)" fill="#fff"/>
      </g>
    </g>
    <g id="Grupo_34" data-name="Grupo 34" transform="translate(313.051 209.77)">
      <g id="Grupo_33" data-name="Grupo 33" transform="translate(0 0)">
        <path id="Caminho_17" data-name="Caminho 17" d="M11.2-4.171H9.008L8.651-6.16a3.771,3.771,0,0,0-1.122-.433A6.535,6.535,0,0,0,6-6.772a2.993,2.993,0,0,0-1.861.51,1.6,1.6,0,0,0-.637,1.3,1.441,1.441,0,0,0,.663,1.224,10.213,10.213,0,0,0,2.371.994A9.13,9.13,0,0,1,10.155-.984,3.671,3.671,0,0,1,11.4,1.9,3.434,3.434,0,0,1,9.926,4.829,6.471,6.471,0,0,1,6.05,5.9a8.7,8.7,0,0,1-3.136-.535A6.361,6.361,0,0,1,.619,3.835V.826H2.863l.306,2.04a3.412,3.412,0,0,0,1.2.612,5.838,5.838,0,0,0,1.683.229,2.865,2.865,0,0,0,1.81-.484,1.55,1.55,0,0,0,.637-1.3A1.677,1.677,0,0,0,7.886.571,6.116,6.116,0,0,0,5.821-.4a11.664,11.664,0,0,1-3.9-1.759,3.33,3.33,0,0,1-1.326-2.8A3.423,3.423,0,0,1,2.073-7.843,6.418,6.418,0,0,1,5.846-9.016a8.733,8.733,0,0,1,3.034.51A7.3,7.3,0,0,1,11.2-7.154Zm0,0" transform="translate(-0.594 9.016)" fill="#fff"/>
      </g>
    </g>
    <g id="Grupo_36" data-name="Grupo 36" transform="translate(329.398 209.974)">
      <g id="Grupo_35" data-name="Grupo 35" transform="translate(0 0)">
        <path id="Caminho_18" data-name="Caminho 18" d="M13.177-8.891v3.876H10.933l-.127-1.632H8.154V3.577l1.555.306V5.617H3.692V3.883l1.555-.306V-6.647H2.57l-.1,1.632H.25V-8.891Zm0,0" transform="translate(-0.25 8.891)" fill="#fff"/>
      </g>
    </g>
    <g id="Grupo_38" data-name="Grupo 38" transform="translate(347.6 209.974)">
      <g id="Grupo_37" data-name="Grupo 37" transform="translate(0 0)">
        <path id="Caminho_19" data-name="Caminho 19" d="M5.7-7.131l-1.173.178L6.771-2.21h.051L9.092-6.953,7.919-7.131V-8.891H13.4v1.759l-1.249.2L8.225.518v3.06l1.555.306V5.617H3.763V3.883l1.555-.306V.365L1.443-6.927l-1.224-.2V-8.891H5.7Zm0,0" transform="translate(-0.219 8.891)" fill="#fff"/>
      </g>
    </g>
  </g>
</svg>
